<svg xmlns="http://www.w3.org/2000/svg" viewBox="0 0 612 612">
  <g sodipodi:docname="twitter_bootstrap_logo.svg" inkscape:version="0.48.1 r9760" xmlns:svg="http://www.w3.org/2000/svg" xmlns:sodipodi="http://sodipodi.sourceforge.net/DTD/sodipodi-0.dtd" xmlns:rdf="http://www.w3.org/1999/02/22-rdf-syntax-ns#" xmlns:dc="http://purl.org/dc/elements/1.1/" xmlns:cc="http://creativecommons.org/ns#" xmlns:inkscape="http://www.inkscape.org/namespaces/inkscape">
    <path d="M255.2725831 443.50664299l222.94479995 228.26327617-134.54309062-312.20896505a55.19716532 55.19716532 0 0 1 28.74852356-71.87130891L560.43816041 206.47506599l-28.74852356-30.04220721a55.05342219 55.05342219 0 0 0-77.62101376-0.86245577L256.56626598 366.31685711a54.62219507 54.62219507 0 0 0-1.29368288 77.18978588z m-21.56139266-0.71871339a54.33470956 54.33470956 0 0 1 1.29368287-77.04604275l113.70041059-110.25058827-33.77951503-13.22432051a55.34090769 55.34090769 0 0 0-71.87130889 30.76091983L141.7159149 526.87736085a54.33470956 54.33470956 0 0 0 30.47343509 70.72136761l342.68240013 134.54309063-90.98907662-94.29515733z m846.35653269 244.36245026L839.29883832 128.71030985a20.41145138 20.41145138 0 0 0-26.87986965-10.49321081L369.4042208 309.82600813a20.55519454 20.55519454 0 0 0-10.78069634 26.87986965L599.24866691 895.28969015a20.6989369 20.6989369 0 0 0 27.02361201 10.49321081L1069.28702679 714.17399187a20.55519454 20.55519454 0 0 0 10.78069634-26.87986965z m-221.6511163-98.31995068a97.60123727 97.60123727 0 0 1-100.61983247-12.93683575 462.27625875 462.27625875 0 0 0 59.94067129 83.80194651l-58.3595029 24.43624472A474.35063796 474.35063796 0 0 0 741.55385791 582.64949643a98.17620753 98.17620753 0 0 1-61.52183968 80.9270937c-70.86511076 24.43624473-158.11687958-46.42886527-98.89492091-153.51711522 37.80430836-68.42148582 57.49704712-103.20719977 64.25295011-180.25324251 59.07821551 49.73494597 98.03246516 59.65318654 172.49114059 80.63960818 118.44391732 33.06080241 107.66322098 145.03630145 40.53541881 178.3845886z" p-id="4923" fill="#2c2c2c"></path>
  </g>
</svg>
