<svg xmlns="http://www.w3.org/2000/svg" viewBox="0 0 612 612">
    <g sodipodi:docname="twitter_bootstrap_logo.svg" inkscape:version="0.48.1 r9760" xmlns:svg="http://www.w3.org/2000/svg" xmlns:sodipodi="http://sodipodi.sourceforge.net/DTD/sodipodi-0.dtd" xmlns:rdf="http://www.w3.org/1999/02/22-rdf-syntax-ns#" xmlns:dc="http://purl.org/dc/elements/1.1/" xmlns:cc="http://creativecommons.org/ns#" xmlns:inkscape="http://www.inkscape.org/namespaces/inkscape">
        <path d="M991.309 326.685a504.32 504.32 0 1 0 35.167 185.287 510.847 510.847 0 0 0-35.167-185.287z m-60.206 34.66l-90.026 51.71a342.102 342.102 0 0 0-89.07-145.788l90.589-52.159a443.27 443.27 0 0 1 88.226 146.294zM787.68 511.973a274.413 274.413 0 1 1-274.413-273.738 274.413 274.413 0 0 1 274.413 273.738zM513.21 68.252a446.59 446.59 0 0 1 85.583 8.44v104.487a331.974 331.974 0 0 0-171.108 0V76.692a446.534 446.534 0 0 1 85.526-8.44z m-329.61 146.8l90.59 52.215A342.046 342.046 0 0 0 185.117 413L95.09 361.346a443.889 443.889 0 0 1 88.226-146.294zM90.196 648.306l91.096-52.44a340.864 340.864 0 0 0 82.318 149.67l-90.027 51.934a443.326 443.326 0 0 1-83.218-149.164zM513.21 955.467a446.477 446.477 0 0 1-85.526-8.44V842.821a331.974 331.974 0 0 0 171.108 0V947.59a446.59 446.59 0 0 1-85.582 8.44z m339.795-158.054l-90.027-51.934a340.864 340.864 0 0 0 82.319-149.67l91.096 52.497a442.876 442.876 0 0 1-83.22 149.107z m0 0" p-id="3474" fill="#13227a"></path><path d="M542.243 474.78c-43.663-16.374-61.555-27.121-61.555-44.057 0-14.348 10.746-28.64 44.113-28.64a157.547 157.547 0 0 1 47.32 7.033 27.008 27.008 0 0 0 34.154-19.074l0.45-1.745a30.553 30.553 0 0 0-22.056-37.192 220.34 220.34 0 0 0-45.52-6.414v-19.244a25.601 25.601 0 0 0-22.507-25.714 25.151 25.151 0 0 0-27.57 24.983v23.576a94.697 94.697 0 0 0-86.764 91.152c0 49.684 37.474 75.285 92.39 93.684 37.98 12.829 54.41 25.095 54.41 44.507 0 20.481-20.031 31.735-49.29 31.735a174.427 174.427 0 0 1-57.842-10.297 27.064 27.064 0 0 0-35.28 18.737v0.844a33.76 33.76 0 0 0 22.901 40.512 240.372 240.372 0 0 0 57.167 9.565v22.845a25.151 25.151 0 0 0 50.303 0V665.13a98.186 98.186 0 0 0 91.377-94.697c0-46.082-24.645-74.216-85.694-95.654z m0 0" p-id="3475" fill="#13227a"></path>
    </g>
</svg>